<svg viewBox="0 0 16 16" xmlns="http://www.w3.org/2000/svg" fill-rule="evenodd" clip-rule="evenodd" stroke-linejoin="round" stroke-miterlimit="1.414">
<path style="fill:#ffffff; stroke:none;" d="M0 0L0 512L150 512L150 511C135.167 510.694 119.105 504.889 106 498.244C94.8544 492.592 84.1636 485.432 75 476.91C23.7023 429.208 31 365.781 31 302C63.2844 302 99.2946 297.578 131 304.004C145.331 306.908 159.339 311.619 172 319.012C182.995 325.431 193.004 332.976 201.999 342C248.757 388.909 241 451.36 241 512L271 512L271 244L271 161C271 143.389 269.609 125.304 273.424 108C284.996 55.5201 332.793 2.181 390 1L355 0L276 0L0 0z"/>
<path style="fill:#ff71e9; stroke:none;" d="M271 512C322.756 512 379.34 519.945 424 488.09C455.845 465.376 476.079 430.76 480.715 392C483.431 369.29 481 344.879 481 322L481 0C429.244 0 372.66 -7.94519 328 23.9097C296.155 46.624 275.921 81.2397 271.285 120C268.569 142.71 271 167.121 271 190L271 512z"/>
<path style="fill:#ffffff; stroke:none;" d="M481 0L481 268L481 351C481 368.611 482.391 386.696 478.576 404C467.004 456.48 419.207 509.819 362 511L362 512L512 512L512 0L481 0z"/>
<path style="fill:#8163a7; stroke:none;" d="M31 302C31 362.049 22.8218 425.337 69.0039 472C77.9587 481.048 88.0195 488.577 99 494.988C111.661 502.381 125.669 507.092 140 509.996C172.011 516.484 208.403 512 241 512C241 479.403 245.484 443.011 238.996 411C236.092 396.669 231.381 382.661 223.988 370C217.577 359.019 210.048 348.959 201 340.004C154.337 293.822 91.0488 302 31 302z"/>
</svg>
